<?xml version="1.0" encoding="UTF-8"?>
<svg width="1400" height="900" viewBox="0 0 1400 900" xmlns="http://www.w3.org/2000/svg">
  <defs>
    <!-- Gradient for AWS Cloud background -->
    <linearGradient id="awsCloudGradient" x1="0%" y1="0%" x2="100%" y2="100%">
      <stop offset="0%" style="stop-color:#E8F4FD;stop-opacity:1" />
      <stop offset="100%" style="stop-color:#FFFFFF;stop-opacity:1" />
    </linearGradient>
    
    <!-- Drop shadow filter -->
    <filter id="dropShadow" x="-20%" y="-20%" width="140%" height="140%">
      <feDropShadow dx="3" dy="3" stdDeviation="3" flood-color="#00000020"/>
    </filter>
    
    <!-- Arrow marker -->
    <defs>
      <marker id="arrowhead" markerWidth="10" markerHeight="7" 
              refX="9" refY="3.5" orient="auto">
        <polygon points="0 0, 10 3.5, 0 7" fill="#232F3E" />
      </marker>
    </defs>
  </defs>

  <!-- Background -->
  <rect width="1400" height="900" fill="#F8F9FA"/>
  
  <!-- Title -->
  <text x="700" y="30" text-anchor="middle" font-family="Arial, sans-serif" 
        font-size="24" font-weight="bold" fill="#232F3E">
    AWS RSS Status Checker - Terraform Architecture
  </text>
  
  <!-- AWS Cloud Container -->
  <rect x="50" y="80" width="1300" height="750" rx="20" ry="20" 
        fill="url(#awsCloudGradient)" stroke="#FF9900" stroke-width="3" filter="url(#dropShadow)"/>
  
  <!-- AWS Cloud Label -->
  <text x="90" y="110" font-family="Arial, sans-serif" font-size="18" font-weight="bold" fill="#232F3E">
    AWS Cloud (us-east-1)
  </text>
  
  <!-- Environment Labels -->
  <rect x="100" y="140" width="150" height="30" rx="15" fill="#4CAF50" opacity="0.8"/>
  <text x="175" y="160" text-anchor="middle" font-family="Arial, sans-serif" 
        font-size="14" font-weight="bold" fill="white">Development</text>
        
  <rect x="270" y="140" width="150" height="30" rx="15" fill="#FF5722" opacity="0.8"/>
  <text x="345" y="160" text-anchor="middle" font-family="Arial, sans-serif" 
        font-size="14" font-weight="bold" fill="white">Production</text>

  <!-- External RSS Sources -->
  <rect x="100" y="200" width="250" height="120" rx="10" fill="#FFFFFF" 
        stroke="#DDD" stroke-width="2" filter="url(#dropShadow)"/>
  <text x="225" y="225" text-anchor="middle" font-family="Arial, sans-serif" 
        font-size="16" font-weight="bold" fill="#232F3E">External RSS Sources</text>
  <text x="225" y="250" text-anchor="middle" font-family="Arial, sans-serif" 
        font-size="12" fill="#666">• AWS Status RSS</text>
  <text x="225" y="270" text-anchor="middle" font-family="Arial, sans-serif" 
        font-size="12" fill="#666">• Azure Status RSS</text>
  <text x="225" y="290" text-anchor="middle" font-family="Arial, sans-serif" 
        font-size="12" fill="#666">• GCP Status RSS</text>
  <text x="225" y="310" text-anchor="middle" font-family="Arial, sans-serif" 
        font-size="12" fill="#666">• Other Cloud Services</text>

  <!-- EventBridge Scheduler -->
  <g transform="translate(450, 200)">
    <rect width="140" height="120" rx="10" fill="#FFFFFF" stroke="#E7157B" stroke-width="2" filter="url(#dropShadow)"/>
    <!-- EventBridge Icon -->
    <g transform="translate(30, 10) scale(0.7)">
      <rect x="0" y="0" width="80" height="80" fill="#E7157B"/>
      <path d="M53.656744,66 C51.5137882,66 49.7695913,64.247 49.7695913,62.091 C49.7695913,59.935 51.5137882,58.182 53.656744,58.182 C55.7996998,58.182 57.5438968,59.935 57.5438968,62.091 C57.5438968,64.247 55.7996998,66 53.656744,66 L53.656744,66 Z M45.1326526,49 L34.7977386,49 L29.6297845,40 L34.7977386,31 L45.1326526,31 L50.2996124,40 L45.1326526,49 Z M27.6210741,21.818 C25.4781184,21.818 23.7339214,20.065 23.7339214,17.909 C23.7339214,15.753 25.4781184,14 27.6210741,14 C29.7650244,14 31.5092213,15.753 31.5092213,17.909 C31.5092213,20.065 29.7650244,21.818 27.6210741,21.818 L27.6210741,21.818 Z M53.656744,56.182 C52.918891,56.182 52.214848,56.325 51.5635088,56.576 L47.3402451,49.41 L47.117497,49.543 L52.3093171,40.5 C52.4863222,40.19 52.4863222,39.81 52.3093171,39.5 L46.5675877,29.5 C46.3895881,29.19 46.0614325,29 45.7064278,29 L35.2581509,29 L35.2989218,28.976 L31.4266852,22.404 C32.691576,21.32 33.4980434,19.708 33.4980434,17.909 C33.4980434,14.651 30.8618597,12 27.6210741,12 C24.381283,12 21.7450993,14.651 21.7450993,17.909 C21.7450993,21.167 24.381283,23.818 27.6210741,23.818 C28.3599216,23.818 29.0639646,23.675 29.7153038,23.424 L33.3299879,29.557 L27.6200797,39.5 C27.4430746,39.81 27.4430746,40.19 27.6200797,40.5 L33.3628035,50.5 C33.5408031,50.81 33.8689587,51 34.2239635,51 L45.7064278,51 C45.7889639,51 45.8695112,50.987 45.9470752,50.968 L49.8521274,57.596 C48.5862421,58.68 47.7807692,60.292 47.7807692,62.091 C47.7807692,65.349 50.4159585,68 53.656744,68 C56.8975296,68 59.5327189,65.349 59.5327189,62.091 C59.5327189,58.833 56.8975296,56.182 53.656744,56.182 L53.656744,56.182 Z M59.5844283,32.104 C57.4414725,32.104 55.6982699,30.351 55.6982699,28.195 C55.6982699,26.039 57.4414725,24.286 59.5844283,24.286 C61.7273841,24.286 63.471581,26.039 63.471581,28.195 C63.471581,30.351 61.7273841,32.104 59.5844283,32.104 L59.5844283,32.104 Z M66.8665003,39.5 L63.091716,32.925 C64.5266511,31.846 65.4604031,30.13 65.4604031,28.195 C65.4604031,24.937 62.8252138,22.286 59.5844283,22.286 C58.7600615,22.286 57.9744768,22.459 57.2614841,22.77 L54.1837819,17.409 C54.0067767,17.1 53.6776267,16.909 53.3226219,16.909 L40.9949082,16.909 L40.9949082,18.909 L52.7488468,18.909 L55.5958456,23.869 C54.4383511,24.949 53.7094478,26.486 53.7094478,28.195 C53.7094478,31.453 56.3446371,34.104 59.5844283,34.104 C60.1880358,34.104 60.771755,34.011 61.3206699,33.84 L64.85779,40 L59.8917013,48.648 L61.6140212,49.648 L66.8665003,40.5 C67.0444999,40.19 67.0444999,39.81 66.8665003,39.5 L66.8665003,39.5 Z M21.229,55.247 C19.0850498,55.247 17.3408528,53.493 17.3408528,51.338 C17.3408528,49.182 19.0850498,47.429 21.229,47.429 C23.3719558,47.429 25.1161527,49.182 25.1161527,51.338 C25.1161527,53.493 23.3719558,55.247 21.229,55.247 L21.229,55.247 Z M24.4767464,56.258 C26.0588544,55.198 27.1049748,53.389 27.1049748,51.338 C27.1049748,48.08 24.4687911,45.429 21.229,45.429 C20.2902759,45.429 19.4062445,45.657 18.618671,46.052 L15.1432044,40 L20.9018387,29.971 L19.1785244,28.971 L13.1334997,39.5 C12.9555001,39.81 12.9555001,40.19 13.1334997,40.5 L17.0047419,47.24 C15.9834817,48.304 15.3520307,49.747 15.3520307,51.338 C15.3520307,54.596 17.9882144,57.247 21.229,57.247 C21.7172558,57.247 22.189601,57.18 22.6440469,57.066 L25.8162181,62.591 C25.9942177,62.9 26.3223733,63.091 26.6773781,63.091 L39.0060862,63.091 L39.0060862,61.091 L27.2511532,61.091 L24.4767464,56.258 Z" fill="#FFFFFF"/>
    </g>
    <text x="70" y="95" text-anchor="middle" font-family="Arial, sans-serif" 
          font-size="12" font-weight="bold" fill="#232F3E">EventBridge</text>
    <text x="70" y="110" text-anchor="middle" font-family="Arial, sans-serif" 
          font-size="11" fill="#666">Scheduler</text>
  </g>

  <!-- AWS Lambda Function -->
  <g transform="translate(700, 200)">
    <rect width="140" height="120" rx="10" fill="#FFFFFF" stroke="#ED7100" stroke-width="2" filter="url(#dropShadow)"/>
    <!-- Lambda Icon -->
    <g transform="translate(30, 10) scale(0.7)">
      <rect x="0" y="0" width="80" height="80" fill="#ED7100"/>
      <path d="M28.0075352,66 L15.5907274,66 L29.3235885,37.296 L35.5460249,50.106 L28.0075352,66 Z M30.2196674,34.553 C30.0512768,34.208 29.7004629,33.989 29.3175745,33.989 L29.3145676,33.989 C28.9286723,33.99 28.5778583,34.211 28.4124746,34.558 L13.097944,66.569 C12.9495999,66.879 12.9706487,67.243 13.1550766,67.534 C13.3374998,67.824 13.6582439,68 14.0020416,68 L28.6420072,68 C29.0299071,68 29.3817234,67.777 29.5481094,67.428 L37.563706,50.528 C37.693006,50.254 37.6920037,49.937 37.5586944,49.665 L30.2196674,34.553 Z M64.9953491,66 L52.6587274,66 L32.866809,24.57 C32.7014253,24.222 32.3486067,24 31.9617091,24 L23.8899822,24 L23.8990031,14 L39.7197081,14 L59.4204149,55.429 C59.5857986,55.777 59.9386172,56 60.3255148,56 L64.9953491,56 L64.9953491,66 Z M65.9976745,54 L60.9599868,54 L41.25928,12.571 C41.0938963,12.223 40.7410777,12 40.3531778,12 L22.89768,12 C22.3453987,12 21.8963569,12.447 21.8953545,12.999 L21.884329,24.999 C21.884329,25.265 21.9885708,25.519 22.1780103,25.707 C22.3654452,25.895 22.6200358,26 22.8866544,26 L31.3292417,26 L51.1221625,67.43 C51.2885485,67.778 51.6393624,68 52.02626,68 L65.9976745,68 C66.5519605,68 67,67.552 67,67 L67,55 C67,54.448 66.5519605,54 65.9976745,54 L65.9976745,54 Z" fill="#FFFFFF"/>
    </g>
    <text x="70" y="95" text-anchor="middle" font-family="Arial, sans-serif" 
          font-size="12" font-weight="bold" fill="#232F3E">AWS Lambda</text>
    <text x="70" y="110" text-anchor="middle" font-family="Arial, sans-serif" 
          font-size="11" fill="#666">RSS Checker</text>
  </g>

  <!-- DynamoDB Tables -->
  <g transform="translate(550, 400)">
    <rect width="160" height="140" rx="10" fill="#FFFFFF" stroke="#C925D1" stroke-width="2" filter="url(#dropShadow)"/>
    <!-- DynamoDB Icon -->
    <g transform="translate(40, 10) scale(0.7)">
      <rect x="0" y="0" width="80" height="80" fill="#C925D1"/>
      <path d="M52.0859525,54.8502506 C48.7479569,57.5490338 41.7449661,58.9752927 35.0439749,58.9752927 C28.3419838,58.9752927 21.336993,57.548042 17.9999974,54.8492588 L17.9999974,60.284515 L18.0009974,60.284515 C18.0009974,62.9952002 24.9999974,66.0163299 35.0439749,66.0163299 C45.0799617,66.0163299 52.0749525,62.9991676 52.0859525,60.290466 L52.0859525,54.8502506 Z M52.0869525,44.522272 L54.0869499,44.5113618 L54.0869499,44.522272 C54.0869499,45.7303271 53.4819507,46.8580436 52.3039522,47.8905439 C53.7319503,49.147199 54.0869499,50.3800499 54.0869499,51.257824 C54.0869499,51.263775 54.0859499,51.2687342 54.0859499,51.2746852 L54.0859499,60.284515 L54.0869499,60.284515 C54.0869499,65.2952658 44.2749628,68 35.0439749,68 C25.8349871,68 16.0499999,65.3071678 16.003,60.3192292 C16.003,60.31427 16,60.3093109 16,60.3043517 L16,51.2548485 C16,51.2528648 16.002,51.2498893 16.002,51.2469138 C16.005,50.3691398 16.3609995,49.1412479 17.7869976,47.8875684 C16.3699995,46.6358725 16.01,45.4149236 16.001,44.5440924 L16.002,44.5440924 C16.002,44.540125 16,44.5371495 16,44.5331822 L16,35.483679 C16,35.4807035 16.002,35.477728 16.002,35.4747525 C16.005,34.5969784 16.3619995,33.3690866 17.7879976,32.1173908 C16.3699995,30.8647031 16.01,29.6427623 16.001,28.7729229 L16.002,28.7729229 C16.002,28.7689556 16,28.7649882 16,28.7610209 L16,19.7125095 C16,19.709534 16.002,19.7065585 16.002,19.703583 C16.019,14.6997751 25.8199871,12 35.0439749,12 C40.2549681,12 45.2609615,12.8281823 48.7779569,14.2722941 L48.0129579,16.1052054 C44.7299622,14.7573015 40.0029684,13.9836701 35.0439749,13.9836701 C24.9999882,13.9836701 18.0009974,17.0047998 18.0009974,19.7174687 C18.0009974,22.4291458 24.9999882,25.4502754 35.0439749,25.4502754 C35.3149746,25.4532509 35.5799742,25.4502754 35.8479739,25.4403571 L35.9319738,27.4220435 C35.6359742,27.4339456 35.3399745,27.4339456 35.0439749,27.4339456 C28.3419838,27.4339456 21.336993,26.0066949 18,23.3079117 L18,28.7401923 L18.0009974,28.7401923 L18.0009974,28.7630046 C18.0109974,29.8034395 19.0779959,30.7119605 19.9719948,31.2892085 C22.6619912,33.0040913 27.4819849,34.1754485 32.8569778,34.4184481 L32.7659779,36.4001346 C27.3209851,36.1531677 22.5529914,35.0234675 19.4839954,33.2917235 C18.7279964,33.8570695 18.0009974,34.6217743 18.0009974,35.4886382 C18.0009974,38.2003153 24.9999882,41.2214449 35.0439749,41.2214449 C36.0289736,41.2214449 37.0069723,41.1887143 37.9519711,41.1232532 L38.0909709,43.1019642 C37.1009722,43.1704008 36.0749736,43.205115 35.0439749,43.205115 C28.3419838,43.205115 21.336993,41.7778644 18,39.0790811 L18,44.5113618 L18.0009974,44.5113618 C18.0109974,45.574609 19.0779959,46.4821381 19.9719948,47.060378 C23.0479907,49.0232196 28.8239831,50.2451604 35.0439749,50.2451604 L35.4839744,50.2451604 L35.4839744,52.2288305 L35.0439749,52.2288305 C28.7249832,52.2288305 22.9819908,51.0554896 19.4699954,49.0728113 C18.7179964,49.6371655 18.0009974,50.397903 18.0009974,51.257824 C18.0009974,53.9695011 24.9999882,56.9916225 35.0439749,56.9916225 C45.0799617,56.9916225 52.0749525,53.9744602 52.0859525,51.2647668 L52.0859525,51.2548485 L52.0859525,51.2538566 C52.0839525,50.391952 51.3639534,49.6312145 50.6099544,49.0668603 C50.1219551,49.3435823 49.5989558,49.6103859 49.0039566,49.8553692 L48.2379576,48.022458 C48.9639566,47.7239156 49.5939558,47.4015692 50.1109551,47.0623616 C51.0129539,46.4742034 52.0869525,45.5547723 52.0869525,44.522272 L52.0869525,44.522272 Z M60.6529412,30.0166841 L55.0489486,30.0166841 C54.717949,30.0166841 54.4069494,29.8540231 54.2219497,29.5822603 C54.0349499,29.3104975 53.99695,28.9643471 54.1189498,28.6598537 L57.5279453,20.1380068 L44.6189702,20.1380068 L38.6189702,32.0400276 L45.0009618,32.0400276 C45.3199614,32.0400276 45.619961,32.1917784 45.8089608,32.44668 C45.9959605,32.7025735 46.0509604,33.0308709 45.9539606,33.3333806 L40.2579681,51.089212 L60.6529412,30.0166841 Z M63.7219372,29.7121907 L38.7229701,55.539576 C38.5279703,55.7399267 38.2659707,55.8440694 38.000971,55.8440694 C37.8249713,55.8440694 37.6479715,55.7994368 37.4899717,55.7052124 C37.0899722,55.4691557 36.9069725,54.992083 37.0479723,54.5517083 L43.6339636,34.0236978 L37.0009724,34.0236978 C36.6539728,34.0236978 36.3329732,33.8461593 36.1499735,33.5535679 C35.9679737,33.2609766 35.9509737,32.8959813 36.1069735,32.5885124 L43.1069643,18.7028214 C43.2759641,18.3665893 43.6219636,18.1543366 44.0009631,18.1543366 L59.0009434,18.1543366 C59.331943,18.1543366 59.6429425,18.3179894 59.8279423,18.5887604 C60.0149421,18.861515 60.052942,19.2066736 59.9309422,19.5121588 L56.5219467,28.0330139 L62.9999381,28.0330139 C63.3999376,28.0330139 63.7629371,28.2710544 63.9199369,28.6360497 C64.0769367,29.0020368 63.9989368,29.4255504 63.7219372,29.7121907 L63.7219372,29.7121907 Z M19.4549955,60.6743062 C20.8719936,61.4727334 22.6559912,62.1442057 24.7569885,62.6678947 L25.2449878,60.7437346 C23.3459903,60.2706293 21.6859925,59.6497405 20.4429942,58.949505 L19.4549955,60.6743062 Z M24.7569885,46.7985335 L25.2449878,44.8753653 C23.3459903,44.4012681 21.6859925,43.7803794 20.4429942,43.0801438 L19.4549955,44.804945 C20.8719936,45.6033722 22.6549912,46.2748446 24.7569885,46.7985335 L24.7569885,46.7985335 Z M19.4549955,28.9355839 L20.4429942,27.2107827 C21.6839925,27.9110182 23.3449903,28.5309151 25.2449878,29.0060041 L24.7569885,30.9291723 C22.6529912,30.4044916 20.8699936,29.7330193 19.4549955,28.9355839 L19.4549955,28.9355839 Z" fill="#FFFFFF"/>
    </g>
    <text x="80" y="95" text-anchor="middle" font-family="Arial, sans-serif" 
          font-size="12" font-weight="bold" fill="#232F3E">DynamoDB</text>
    <text x="80" y="110" text-anchor="middle" font-family="Arial, sans-serif" 
          font-size="11" fill="#666">Status Table</text>
    <text x="80" y="125" text-anchor="middle" font-family="Arial, sans-serif" 
          font-size="11" fill="#666">Sent Items Table</text>
  </g>

  <!-- CloudWatch Logs -->
  <g transform="translate(950, 200)">
    <rect width="140" height="120" rx="10" fill="#FFFFFF" stroke="#E7157B" stroke-width="2" filter="url(#dropShadow)"/>
    <!-- CloudWatch Icon -->
    <g transform="translate(30, 10) scale(0.7)">
      <rect x="0" y="0" width="80" height="80" fill="#E7157B"/>
      <path d="M55.0592315,46.7773707 C55.0592315,42.8680281 51.8575588,39.6876305 47.9220646,39.6876305 C43.9865705,39.6876305 40.785903,42.8680281 40.785903,46.7773707 C40.785903,50.6867133 43.9865705,53.8671108 47.9220646,53.8671108 C51.8575588,53.8671108 55.0592315,50.6867133 55.0592315,46.7773707 M57.0697011,46.7773707 C57.0697011,51.7881194 52.9663327,55.8642207 47.9220646,55.8642207 C42.8788018,55.8642207 38.7754334,51.7881194 38.7754334,46.7773707 C38.7754334,41.7666219 42.8788018,37.6905206 47.9220646,37.6905206 C52.9663327,37.6905206 57.0697011,41.7666219 57.0697011,46.7773707 M65.5096522,60.4735504 L58.5011554,54.2026253 C57.9352082,54.9944794 57.2808004,55.7174332 56.5540156,56.3634982 L63.5524601,62.6334248 C64.1495696,63.1686502 65.0784065,63.1187225 65.6182176,62.5255808 C66.155013,61.9324392 66.1067617,61.010773 65.5096522,60.4735504 M47.9220646,57.6616197 C53.9645309,57.6616197 58.8801289,52.7786859 58.8801289,46.7773707 C58.8801289,40.7750569 53.9645309,35.8931217 47.9220646,35.8931217 C41.8806036,35.8931217 36.9650056,40.7750569 36.9650056,46.7773707 C36.9650056,52.7786859 41.8806036,57.6616197 47.9220646,57.6616197 M67.1119965,63.8626459 C66.4264264,64.6165549 65.47849,65 64.5285431,65 C63.7002296,65 62.8699057,64.708422 62.207456,64.1172774 L54.9305615,57.5987107 C52.9070239,58.8968321 50.505518,59.6587296 47.9220646,59.6587296 C40.7718297,59.6587296 34.9545361,53.8800921 34.9545361,46.7773707 C34.9545361,39.6746493 40.7718297,33.8960118 47.9220646,33.8960118 C55.0733048,33.8960118 60.8905985,39.6746493 60.8905985,46.7773707 C60.8905985,48.8154213 60.3990387,50.7366411 59.5465996,52.4511599 L66.8556616,58.9906963 C68.2750531,60.265851 68.3896499,62.4496907 67.1119965,63.8626459 M21.2803274,29.392529 C21.2803274,29.9117776 21.3124949,30.429029 21.3738143,30.9293051 C21.4089975,31.2138932 21.3205368,31.4984814 21.1295422,31.7131707 C20.9777518,31.8839236 20.7736891,31.9967603 20.550527,32.0347054 C18.0786547,32.6687878 14.0104695,34.5880104 14.0104695,40.3456782 C14.0104695,44.6933865 16.4240382,47.0929141 18.4495863,48.3411077 C19.1411878,48.7744806 19.9594489,49.0051468 20.8229456,49.0141338 L32.9450717,49.0251179 L32.9430613,51.0222278 L20.811888,51.0112437 C19.5664021,50.9982625 18.384246,50.6607509 17.3840374,50.0346569 C15.3765836,48.7974474 12,45.8896553 12,40.3456782 C12,33.66235 16.5999543,31.191925 19.3000149,30.319188 C19.2799102,30.0116331 19.2698579,29.702081 19.2698579,29.392529 C19.2698579,23.9324305 22.9982737,18.2696254 27.9420183,16.2215892 C33.7241287,13.8150717 39.8500294,15.0083449 44.3263399,19.4109737 C45.7135638,20.7749998 46.8545053,22.4316024 47.7300648,24.3478294 C48.9061895,23.3802296 50.355738,22.8460027 51.8836949,22.8460027 C54.8863312,22.8460027 58.2659305,25.1097268 58.8680661,30.0605622 C61.6797078,30.7046302 67.6206453,32.9553731 67.6206453,40.422567 C67.6206453,43.4042521 66.6797455,45.8666886 64.8230769,47.7419748 L63.3896121,46.3410022 C64.8632863,44.8531553 65.6101757,42.8620367 65.6101757,40.422567 C65.6101757,33.891019 60.1055101,32.2663701 57.737177,31.8719409 C57.4677741,31.827006 57.2295334,31.6752256 57.0757325,31.4515493 C56.9259525,31.2358614 56.8686541,30.9712444 56.9138897,30.7146157 C56.5851779,26.6604826 54.1605516,24.8431126 51.8836949,24.8431126 C50.4472144,24.8431126 49.1001998,25.5381069 48.1874466,26.7503526 C47.9652897,27.0439277 47.6044105,27.193711 47.2344841,27.139789 C46.8695838,27.085867 46.5629872,26.8362283 46.4373329,26.4917268 C45.6140456,24.2260057 44.4278686,22.3207628 42.9119745,20.8309188 C39.0327735,17.0154404 33.7281496,15.9809374 28.7170543,18.0649216 C24.5463352,19.7924217 21.2803274,24.7672224 21.2803274,29.392529" fill="#FFFFFF"/>
    </g>
    <text x="70" y="95" text-anchor="middle" font-family="Arial, sans-serif" 
          font-size="12" font-weight="bold" fill="#232F3E">CloudWatch</text>
    <text x="70" y="110" text-anchor="middle" font-family="Arial, sans-serif" 
          font-size="11" fill="#666">Logs &amp; Metrics</text>
  </g>

  <!-- IAM Role -->
  <g transform="translate(950, 400)">
    <rect width="140" height="120" rx="10" fill="#FFFFFF" stroke="#DD344C" stroke-width="2" filter="url(#dropShadow)"/>
    <!-- IAM Icon -->
    <g transform="translate(30, 10) scale(0.7)">
      <rect x="0" y="0" width="80" height="80" fill="#DD344C"/>
      <path d="M14,59 L66,59 L66,21 L14,21 L14,59 Z M68,20 L68,60 C68,60.552 67.553,61 67,61 L13,61 C12.447,61 12,60.552 12,60 L12,20 C12,19.448 12.447,19 13,19 L67,19 C67.553,19 68,19.448 68,20 L68,20 Z M44,48 L59,48 L59,46 L44,46 L44,48 Z M57,42 L62,42 L62,40 L57,40 L57,42 Z M44,42 L52,42 L52,40 L44,40 L44,42 Z M29,46 C29,45.449 28.552,45 28,45 C27.448,45 27,45.449 27,46 C27,46.551 27.448,47 28,47 C28.552,47 29,46.551 29,46 L29,46 Z M31,46 C31,47.302 30.161,48.401 29,48.816 L29,51 L27,51 L27,48.815 C25.839,48.401 25,47.302 25,46 C25,44.346 26.346,43 28,43 C29.654,43 31,44.346 31,46 L31,46 Z M19,53.993 L36.994,54 L36.996,50 L33,50 L33,48 L36.996,48 L36.998,45 L33,45 L33,43 L36.999,43 L37,40.007 L19.006,40 L19,53.993 Z M22,38.001 L34,38.006 L34,31 C34.001,28.697 31.197,26.677 28,26.675 L27.996,26.675 C24.804,26.675 22.004,28.696 22.002,31 L22,38.001 Z M17,54.992 L17.006,39 C17.006,38.734 17.111,38.48 17.299,38.292 C17.486,38.105 17.741,38 18.006,38 L20,38.001 L20.002,31 C20.004,27.512 23.59,24.675 27.996,24.675 L28,24.675 C32.412,24.677 36.001,27.515 36,31 L36,38.007 L38,38.008 C38.553,38.008 39,38.456 39,39.008 L38.994,55 C38.994,55.266 38.889,55.52 38.701,55.708 C38.514,55.895 38.259,56 37.994,56 L18,55.992 C17.447,55.992 17,55.544 17,54.992 L17,54.992 Z M60,36 L62,36 L62,34 L60,34 L60,36 Z M44,36 L55,36 L55,34 L44,34 L44,36 Z" fill="#FFFFFF"/>
    </g>
    <text x="70" y="95" text-anchor="middle" font-family="Arial, sans-serif" 
          font-size="12" font-weight="bold" fill="#232F3E">IAM Role</text>
    <text x="70" y="110" text-anchor="middle" font-family="Arial, sans-serif" 
          font-size="11" fill="#666">Lambda Execution</text>
  </g>

  <!-- Microsoft Teams -->
  <rect x="1050" y="350" width="200" height="80" rx="10" fill="#FFFFFF" 
        stroke="#5B2C87" stroke-width="2" filter="url(#dropShadow)"/>
  <text x="1150" y="375" text-anchor="middle" font-family="Arial, sans-serif" 
        font-size="14" font-weight="bold" fill="#5B2C87">Microsoft Teams</text>
  <text x="1150" y="395" text-anchor="middle" font-family="Arial, sans-serif" 
        font-size="12" fill="#666">Webhook Notifications</text>
  <text x="1150" y="415" text-anchor="middle" font-family="Arial, sans-serif" 
        font-size="11" fill="#666">Status Updates</text>

  <!-- Data Flow Arrows -->
  <!-- RSS to Lambda (curved below to avoid EventBridge) -->
  <path d="M 350 280 Q 525 360 700 280" stroke="#232F3E" stroke-width="2" fill="none" marker-end="url(#arrowhead)"/>
  <text x="525" y="375" text-anchor="middle" font-family="Arial, sans-serif" 
        font-size="11" fill="#232F3E">RSS Feed Data</text>

  <!-- EventBridge to Lambda -->
  <line x1="590" y1="260" x2="700" y2="260" stroke="#232F3E" stroke-width="2" marker-end="url(#arrowhead)"/>
  <text x="645" y="245" text-anchor="middle" font-family="Arial, sans-serif" 
        font-size="11" fill="#232F3E">Trigger</text>

  <!-- Lambda to DynamoDB -->
  <line x1="770" y1="320" x2="630" y2="400" stroke="#232F3E" stroke-width="2" marker-end="url(#arrowhead)"/>
  <text x="700" y="360" text-anchor="middle" font-family="Arial, sans-serif" 
        font-size="11" fill="#232F3E">Read/Write</text>

  <!-- Lambda to CloudWatch -->
  <line x1="840" y1="260" x2="950" y2="260" stroke="#232F3E" stroke-width="2" marker-end="url(#arrowhead)"/>
  <text x="895" y="245" text-anchor="middle" font-family="Arial, sans-serif" 
        font-size="11" fill="#232F3E">Logs</text>

  <!-- Lambda to Teams (straight line to avoid IAM overlap) -->
  <line x1="840" y1="260" x2="1050" y2="390" stroke="#232F3E" stroke-width="2" marker-end="url(#arrowhead)"/>
  <text x="945" y="320" text-anchor="middle" font-family="Arial, sans-serif" 
        font-size="11" fill="#232F3E">Webhook</text>

  <!-- IAM to Lambda (authorization - repositioned) -->
  <line x1="950" y1="460" x2="770" y2="320" stroke="#DD344C" stroke-width="2" stroke-dasharray="5,5"/>
  <text x="860" y="390" text-anchor="middle" font-family="Arial, sans-serif" 
        font-size="11" fill="#DD344C">Permissions</text>

  <!-- Key Features Box -->
  <rect x="100" y="600" width="300" height="200" rx="10" fill="#FFFFFF" 
        stroke="#232F3E" stroke-width="2" filter="url(#dropShadow)"/>
  <text x="250" y="625" text-anchor="middle" font-family="Arial, sans-serif" 
        font-size="16" font-weight="bold" fill="#232F3E">Key Features</text>
  
  <text x="120" y="650" font-family="Arial, sans-serif" font-size="12" fill="#333">
    • Serverless Architecture (Pay-per-use)
  </text>
  <text x="120" y="670" font-family="Arial, sans-serif" font-size="12" fill="#333">
    • Automatic RSS Feed Monitoring
  </text>
  <text x="120" y="690" font-family="Arial, sans-serif" font-size="12" fill="#333">
    • Duplicate Detection via DynamoDB
  </text>
  <text x="120" y="710" font-family="Arial, sans-serif" font-size="12" fill="#333">
    • Real-time Notifications to Teams
  </text>
  <text x="120" y="730" font-family="Arial, sans-serif" font-size="12" fill="#333">
    • Multi-environment Support (Dev/Prod)
  </text>
  <text x="120" y="750" font-family="Arial, sans-serif" font-size="12" fill="#333">
    • Infrastructure as Code (Terraform)
  </text>
  <text x="120" y="770" font-family="Arial, sans-serif" font-size="12" fill="#333">
    • Comprehensive Monitoring &amp; Logging
  </text>
  <text x="120" y="790" font-family="Arial, sans-serif" font-size="12" fill="#333">
    • Automatic TTL Cleanup
  </text>

  <!-- Cost Optimization Box -->
  <rect x="450" y="600" width="300" height="200" rx="10" fill="#FFFFFF" 
        stroke="#4CAF50" stroke-width="2" filter="url(#dropShadow)"/>
  <text x="600" y="625" text-anchor="middle" font-family="Arial, sans-serif" 
        font-size="16" font-weight="bold" fill="#4CAF50">Cost Optimization</text>
  
  <text x="470" y="650" font-family="Arial, sans-serif" font-size="12" fill="#333">
    • Reserved Concurrency (2) - Prevents cost spikes
  </text>
  <text x="470" y="670" font-family="Arial, sans-serif" font-size="12" fill="#333">
    • DynamoDB On-Demand Pricing
  </text>
  <text x="470" y="690" font-family="Arial, sans-serif" font-size="12" fill="#333">
    • CloudWatch Log Retention Limits
  </text>
  <text x="470" y="710" font-family="Arial, sans-serif" font-size="12" fill="#333">
    • Efficient Memory Allocation (512MB)
  </text>
  <text x="470" y="730" font-family="Arial, sans-serif" font-size="12" fill="#333">
    • TTL-based Automatic Data Cleanup
  </text>
  <text x="470" y="750" font-family="Arial, sans-serif" font-size="12" fill="#333">
    • Minimal External Dependencies
  </text>
  <text x="470" y="770" font-family="Arial, sans-serif" font-size="12" fill="#333">
    • Node.js 20.x Runtime Efficiency
  </text>
  <text x="470" y="790" font-family="Arial, sans-serif" font-size="12" fill="#333">
    • Connection Reuse for AWS Services
  </text>

  <!-- Footer -->
  <text x="700" y="870" text-anchor="middle" font-family="Arial, sans-serif" 
        font-size="12" fill="#666">
    Generated with Terraform • Managed Infrastructure as Code • AWS Best Practices
  </text>
</svg>